<?xml version="1.0" encoding="UTF-8"?>
<svg id="Layer_1" data-name="Layer 1" xmlns="http://www.w3.org/2000/svg" xmlns:xlink="http://www.w3.org/1999/xlink" version="1.1" viewBox="0 0 300 90">
  <defs>
    <style>
      .cls-1 {
        clip-path: url(#clippath);
      }

      .cls-2 {
        fill: none;
      }

      .cls-2, .cls-3, .cls-4, .cls-5, .cls-6, .cls-7, .cls-8, .cls-9, .cls-10, .cls-11, .cls-12, .cls-13, .cls-14, .cls-15, .cls-16 {
        stroke-width: 0px;
      }

      .cls-3 {
        fill: url(#linear-gradient);
      }

      .cls-4 {
        fill: url(#linear-gradient-10);
      }

      .cls-17 {
        clip-path: url(#clippath-1);
      }

      .cls-18 {
        clip-path: url(#clippath-4);
      }

      .cls-19 {
        clip-path: url(#clippath-3);
      }

      .cls-20 {
        clip-path: url(#clippath-2);
      }

      .cls-21 {
        clip-path: url(#clippath-5);
      }

      .cls-5 {
        fill: #000;
      }

      .cls-6, .cls-7 {
        fill: #f9f9fa;
      }

      .cls-6, .cls-16 {
        fill-rule: evenodd;
      }

      .cls-8 {
        fill: url(#linear-gradient-4);
      }

      .cls-9 {
        fill: url(#linear-gradient-2);
      }

      .cls-10 {
        fill: url(#linear-gradient-3);
      }

      .cls-11 {
        fill: url(#linear-gradient-8);
      }

      .cls-12 {
        fill: url(#linear-gradient-9);
      }

      .cls-13 {
        fill: url(#linear-gradient-7);
      }

      .cls-14 {
        fill: url(#linear-gradient-5);
      }

      .cls-15 {
        fill: url(#linear-gradient-6);
      }

      .cls-16 {
        fill: #561f5b;
      }
    </style>
    <clipPath id="clippath">
      <path class="cls-2" d="M134.7,9.6s5.1,3.6,5.5,8.4-2.4,8.1,2.2,9.5c4.1,1.3,6.8-3.3,6.4-7.5l-1,.7s-.7-5-2.5-7.9l-.4,2s-3-3.8-5.1-4.9l.2,1.2c.1.1-1.9-1.3-5.3-1.5Z"/>
    </clipPath>
    <linearGradient id="linear-gradient" x1="-59.8" y1="-209.8" x2="-60.9" y2="-193.4" gradientTransform="translate(113.9 -189.6) rotate(-24.3) scale(1 -1)" gradientUnits="userSpaceOnUse">
      <stop offset="0" stop-color="#03a672"/>
      <stop offset="1" stop-color="#68c4a3"/>
    </linearGradient>
    <clipPath id="clippath-1">
      <path class="cls-2" d="M134.7,9.6s5.1,3.6,5.5,8.4-2.3,8,2.2,9.5c5.6-3,2.8-12.3-7.7-17.9Z"/>
    </clipPath>
    <linearGradient id="linear-gradient-2" x1="-61.2" y1="-191.1" x2="-61.1" y2="-210.8" gradientTransform="translate(113.9 -189.6) rotate(-24.3) scale(1 -1)" gradientUnits="userSpaceOnUse">
      <stop offset="0" stop-color="#03a672"/>
      <stop offset="1" stop-color="#65c3a1"/>
    </linearGradient>
    <clipPath id="clippath-2">
      <path class="cls-2" d="M148.9,36.7c-.6-1.3-1.7-2.8-3.3-4.1-4.4-3.6-9.2-2.6-12.3-.7,5.5-8.6,13.9-3.5,15.6,4.8Z"/>
    </clipPath>
    <linearGradient id="linear-gradient-3" x1="-69.3" y1="-208.1" x2="-61.7" y2="-219.4" gradientTransform="translate(113.9 -189.6) rotate(-24.3) scale(1 -1)" gradientUnits="userSpaceOnUse">
      <stop offset="0" stop-color="#f9a13a"/>
      <stop offset="1" stop-color="#b9539f"/>
    </linearGradient>
    <clipPath id="clippath-3">
      <path class="cls-2" d="M146,2.7s4.1,7.9,1.5,14.3-8.3,8.7-3.4,13.5c4.4,4.3,10.8.3,13-5.3l-1.7.3s2.4-6.8,2-11.6l-1.8,2.2s-1.3-6.8-3.2-9.6l-.5,1.7c-.1,0-1.7-3.1-5.9-5.5Z"/>
    </clipPath>
    <linearGradient id="linear-gradient-4" x1="-59.6" y1="-214.9" x2="-50.3" y2="-193.5" gradientTransform="translate(113.9 -189.6) rotate(-24.3) scale(1 -1)" gradientUnits="userSpaceOnUse">
      <stop offset="0" stop-color="#03a672"/>
      <stop offset="1" stop-color="#68c4a3"/>
    </linearGradient>
    <clipPath id="clippath-4">
      <path class="cls-2" d="M146,2.7s4.1,7.9,1.5,14.3c-2.6,6.3-8.2,8.6-3.5,13.4,9-.1,11.6-13.7,2-27.7Z"/>
    </clipPath>
    <linearGradient id="linear-gradient-5" x1="-49.7" y1="-190.1" x2="-62.5" y2="-215" gradientTransform="translate(113.9 -189.6) rotate(-24.3) scale(1 -1)" gradientUnits="userSpaceOnUse">
      <stop offset="0" stop-color="#03a672"/>
      <stop offset="1" stop-color="#72c7a9"/>
    </linearGradient>
    <clipPath id="clippath-5">
      <path class="cls-2" d="M132.5,27s.9.2,1.2.8.1,1.1.7,1.1c.6-.6-.3-1.7-1.9-1.9Z"/>
    </clipPath>
    <linearGradient id="linear-gradient-6" x1="111.6" y1="36.4" x2="121.7" y2="59.6" gradientTransform="translate(0 92) scale(1 -1)" gradientUnits="userSpaceOnUse">
      <stop offset="0" stop-color="#03a672"/>
      <stop offset="1" stop-color="#68c4a3"/>
    </linearGradient>
    <linearGradient id="linear-gradient-7" x1="94.1" y1="37.1" x2="104.1" y2="60.3" gradientTransform="translate(0 92) scale(1 -1)" gradientUnits="userSpaceOnUse">
      <stop offset="0" stop-color="#03a672"/>
      <stop offset="1" stop-color="#68c4a3"/>
    </linearGradient>
    <linearGradient id="linear-gradient-8" x1="103.6" y1="40" x2="109.5" y2="53.7" gradientTransform="translate(0 92) scale(1 -1)" gradientUnits="userSpaceOnUse">
      <stop offset="0" stop-color="#f8951d"/>
      <stop offset="1" stop-color="#ffd056"/>
    </linearGradient>
    <linearGradient id="linear-gradient-9" x1="102.3" y1="40.6" x2="105.9" y2="48.9" gradientTransform="translate(0 92) scale(1 -1)" gradientUnits="userSpaceOnUse">
      <stop offset="0" stop-color="#f8951d"/>
      <stop offset="1" stop-color="#ffd056"/>
    </linearGradient>
    <linearGradient id="linear-gradient-10" x1="107.1" y1="41.2" x2="111.9" y2="52.4" gradientTransform="translate(0 92) scale(1 -1)" gradientUnits="userSpaceOnUse">
      <stop offset="0" stop-color="#f8951d"/>
      <stop offset="1" stop-color="#ffd056"/>
    </linearGradient>
  </defs>
  <g>
    <g>
      <path class="cls-5" d="M8.7,37.1v33.5H2v-33.5h6.7Z"/>
      <path class="cls-5" d="M38.6,46.7c1.9,2,2.9,4.8,2.9,8.4v15.6h-6.7v-14.8c0-2.1-.5-3.7-1.6-4.9-1.1-1.1-2.5-1.7-4.3-1.7s-3.3.6-4.4,1.7c-1.1,1.1-1.6,2.8-1.6,4.9v14.7h-6.7v-26.6h6.8v3.3c.9-1.2,2-2.1,3.4-2.7,1.4-.7,2.9-1,4.6-1,3.1.1,5.7,1.1,7.6,3.1Z"/>
      <path class="cls-5" d="M71.3,46.7c1.9,2,2.9,4.8,2.9,8.4v15.6h-6.7v-14.8c0-2.1-.5-3.7-1.6-4.9-1.1-1.1-2.5-1.7-4.3-1.7s-3.3.6-4.4,1.7-1.6,2.8-1.6,4.9v14.7h-6.7v-26.6h6.7v3.3c.9-1.2,2-2.1,3.4-2.7,1.4-.7,2.9-1,4.6-1,3.2.1,5.7,1.1,7.7,3.1Z"/>
      <path class="cls-5" d="M154.5,64.4l6.7-20.4h7.1l-9.8,26.6h-8.2l-9.7-26.6h7.2l6.7,20.4Z"/>
      <path class="cls-5" d="M173,50.1c1.1-2.1,2.5-3.7,4.4-4.8,1.8-1.1,3.9-1.7,6.2-1.7s3.7.4,5.2,1.2,2.7,1.8,3.6,3v-3.8h6.8v26.6h-6.8v-3.9c-.9,1.2-2.1,2.3-3.6,3.1-1.5.8-3.3,1.2-5.3,1.2s-4.3-.6-6.1-1.7c-1.8-1.2-3.3-2.8-4.4-4.9-1.1-2.1-1.6-4.5-1.6-7.2,0-2.7.5-5,1.6-7.1ZM191.3,53.1c-.6-1.2-1.5-2.1-2.6-2.7-1.1-.6-2.3-.9-3.5-.9s-2.4.3-3.5.9c-1.1.6-1.9,1.5-2.6,2.7-.7,1.2-1,2.5-1,4.1s.3,3,1,4.2,1.5,2.1,2.6,2.8c1.1.6,2.2,1,3.4,1s2.4-.3,3.5-.9,1.9-1.5,2.6-2.7c.6-1.2,1-2.6,1-4.2s-.2-3.1-.9-4.3Z"/>
      <path class="cls-5" d="M214.4,49.6v12.9c0,.9.2,1.5.6,1.9.4.4,1.2.6,2.2.6h3.1v5.7h-4.2c-5.7,0-8.5-2.7-8.5-8.2v-12.9h-3.2v-5.6h3.2v-6.6h6.8v6.6h5.9v5.5h-5.9Z"/>
      <path class="cls-5" d="M231,69.3c-2-1.1-3.7-2.7-4.8-4.8-1.2-2.1-1.8-4.5-1.8-7.2s.6-5.1,1.8-7.2c1.2-2.1,2.8-3.7,4.9-4.8,2.1-1.1,4.4-1.7,7-1.7s4.9.6,7,1.7c2.1,1.1,3.7,2.7,4.9,4.8s1.8,4.5,1.8,7.2-.6,5.1-1.8,7.2c-1.2,2.1-2.9,3.7-5,4.8-2.1,1.1-4.4,1.7-7,1.7s-4.9-.5-7-1.7ZM241.4,64.3c1.1-.6,1.9-1.5,2.6-2.7.6-1.2,1-2.6,1-4.3,0-2.5-.7-4.5-2-5.8-1.3-1.4-2.9-2-4.9-2s-3.5.7-4.8,2c-1.3,1.4-1.9,3.3-1.9,5.8s.6,4.5,1.9,5.8c1.3,1.4,2.9,2,4.8,2,1,0,2.2-.2,3.3-.8Z"/>
      <path class="cls-5" d="M267.8,44.9c1.4-.8,3-1.2,4.8-1.2v7h-1.8c-2.1,0-3.7.5-4.8,1.5-1.1,1-1.6,2.7-1.6,5.2v13.2h-6.7v-26.6h6.7v4.1c.9-1.3,2-2.4,3.4-3.2Z"/>
      <path class="cls-5" d="M282.3,69.9c-1.7-.8-3.1-1.8-4.1-3.2-1-1.3-1.6-2.8-1.7-4.5h6.8c.1,1,.6,1.9,1.5,2.5.9.7,2,1,3.3,1s2.3-.3,3-.8,1.1-1.2,1.1-2-.4-1.5-1.3-1.9-2.3-.9-4.2-1.4c-2-.5-3.6-1-4.9-1.5s-2.3-1.3-3.3-2.3c-.9-1.1-1.4-2.5-1.4-4.3s.4-2.8,1.3-4c.8-1.2,2.1-2.2,3.6-2.9,1.6-.7,3.4-1.1,5.6-1.1,3.2,0,5.7.8,7.6,2.4,1.9,1.6,2.9,3.7,3.1,6.4h-6.3c-.1-1.1-.5-1.9-1.3-2.5s-1.8-.9-3.1-.9-2.2.2-2.8.7c-.7.4-1,1.1-1,1.9s.4,1.6,1.3,2c.9.5,2.3.9,4.2,1.4,1.9.5,3.5,1,4.7,1.5s2.3,1.3,3.2,2.4c.9,1.1,1.4,2.5,1.4,4.2s-.4,2.9-1.3,4.1c-.8,1.2-2.1,2.2-3.6,2.9-1.6.7-3.4,1-5.5,1-2.2,0-4.1-.4-5.9-1.1Z"/>
    </g>
    <g>
      <path class="cls-5" d="M133.7,36.1s.1,0,.2.4c.2.3.4.7.6,1.2.3.6.6,1.2.9,2.1.3.8.6,1.8.8,3,.4,2.3.5,5.2-.2,8.5-.2.8-.4,1.7-.7,2.5s-.6,1.7-1,2.6c-.8,1.7-1.9,3.4-3.2,5.1-1.3,1.6-2.9,3.2-4.6,4.6-1.8,1.4-3.8,2.7-6,3.7s-4.6,1.8-7.2,2.3c-2.5.5-5.2.7-7.9.5-.7,0-1.4,0-2-.2-.3,0-.7,0-1-.2h-1c0,0-.3-.2-.5-.2h-.5c-.3-.2-.7-.3-1-.4-.7-.2-1.4-.4-2-.7-1.3-.5-2.7-1.1-3.9-1.8-1.3-.7-2.5-1.5-3.6-2.4-2.3-1.8-4.3-4-6-6.4s-3-5-4-7.8c-1.9-5.5-2.3-11.5-1.2-17.1.3-1.4.6-2.8,1.1-4.2.5-1.4,1.1-2.7,1.8-4,1.4-2.5,3.2-4.8,5.3-6.6,2.1-1.9,4.4-3.4,6.8-4.4,2.4-1.1,5-1.7,7.5-2s4.9-.2,7.2.3c1.1.2,2.2.5,3.3.9h.4c0,.1.4.2.4.2.2.1.5.2.8.3s.5.2.8.3c.2.1.5.2.7.4,1.9,1,3.6,2.3,4.9,3.7,1.4,1.4,2.4,2.9,3.2,4.4.8,1.5,1.3,3,1.7,4.4.3,1.4.5,2.7.5,3.9v1.7c0,.5,0,1-.2,1.4s-.2.9-.2,1.2c0,.4-.2.7-.3,1,0,.3-.2.5-.3.8,0,.2-.2.4-.2.5,0,.3-.2.4-.2.4,0,0,0-.2,0-.5,0-.2,0-.3,0-.6,0-.2,0-.5,0-.8v-2.2c0-.9-.2-1.8-.4-2.9-.2-1.1-.6-2.2-1.1-3.4-.5-1.2-1.2-2.4-2.1-3.5-1.7-2.3-4.3-4.4-7.5-5.5-.2-.1-.4-.1-.6-.2,0,0-.2-.1-.3-.1h-.3c-.2-.2-.4-.2-.6-.3h-.4c0-.1-.2-.1-.2-.1h0s0,0,0,0h0c-.9-.2-1.8-.3-2.7-.4-1.8-.1-3.7,0-5.6.4-3.8.8-7.4,2.7-10.3,5.6-1.4,1.5-2.6,3.1-3.6,5-.9,1.9-1.5,3.8-1.9,6-.7,4.3-.3,8.9,1.1,13.1,1.5,4.2,4,8,7.3,10.7.8.7,1.7,1.3,2.6,1.9.9.6,1.8,1,2.8,1.4s1,.4,1.5.6c.2,0,.5.2.7.2h.3c0,0,.2.2.4.2h.4c0,0,0,0,0,0,0,0,0,0,0,0h.3c.3,0,.5,0,.8.2.5,0,1,.2,1.6.3,4.2.5,8.4,0,12.1-1.3s7-3.4,9.5-5.9,4.3-5.3,5.4-8c1.1-2.7,1.5-5.3,1.6-7.5,0-2.2-.2-3.9-.5-5.1-.1-.6-.2-1-.3-1.3-.3.2-.3,0-.3,0Z"/>
      <g>
        <g class="cls-1">
          <polygon class="cls-3" points="140.4 31.6 152 26.4 142.8 6 131.2 11.2 140.4 31.6"/>
        </g>
        <g class="cls-17">
          <polygon class="cls-9" points="139.2 29 149.4 24.4 141.4 6.6 131.2 11.2 139.2 29"/>
        </g>
        <path class="cls-16" d="M149.9,41.8c.3-1.9-.7-5.3-1.5-7.1.3.8.4,1.4.5,2-.6-1.3-1.7-2.8-3.3-4.1-5.1-4.2-10.8-2.2-13.6.3s-8.4,7.4-8.4,7.4c0,0,4.2-4.7,7.6-9.1.3-15.7,26.4-6.5,21.4,6.5,0-1.4-.6-2.6-.6-2.6.7,3-.2,4.6-2.1,6.7"/>
        <g class="cls-20">
          <polygon class="cls-10" points="137.7 41.8 150.6 35.9 143.9 21 131 26.9 137.7 41.8"/>
        </g>
        <g class="cls-19">
          <polygon class="cls-8" points="144.2 36.7 163.7 28 151.2 .3 131.7 9.1 144.2 36.7"/>
        </g>
        <g class="cls-18">
          <polygon class="cls-14" points="143.3 34.7 160.2 27 148.7 1.5 131.8 9.1 143.3 34.7"/>
        </g>
        <g>
          <path id="SVGID" class="cls-6" d="M134.5,26.7s-.1.9-.6,1.3-1.1.3-1,.9c.7.5,1.6-.5,1.6-2.2"/>
          <g class="cls-21">
            <rect class="cls-7" x="132.3" y="27.1" width="2.7" height="1.8" transform="translate(86.8 156.3) rotate(-81.8)"/>
          </g>
        </g>
      </g>
      <g>
        <path class="cls-15" d="M123.4,43.8c-1.5,0-3.3.7-3.3,3.9v5.6c0,3.3-3.3,3.7-5.4,3.6v-.5c1.6,0,3.6-.5,3.6-3.7v-5.6c0-2.2,1.4-3.1,3-3.5-1.6-.4-3-1.3-3-3.5v-5.6c0-3.1-2-3.8-3.6-3.7v-.5c2.1-.1,5.4.3,5.4,3.6v6.3c0,2.8,2,3.2,3.6,3.2v.5h-.3Z"/>
        <path class="cls-13" d="M92.1,43.8v-.5c1.6,0,3.6-.4,3.6-3.2v-6.3c0-3.3,3.3-3.7,5.4-3.6v.5c-1.6-.1-3.6.6-3.6,3.7v5.6c0,2.3-1.4,3.1-3,3.5,1.6.3,3,1.3,3,3.5v5.6c0,3.2,2,3.8,3.6,3.7v.5c-2.2,0-5.4-.3-5.4-3.6v-5.6c0-3.2-1.8-3.8-3.3-3.9h-.3Z"/>
        <g>
          <path class="cls-11" d="M114.3,41.8l-7.4-4.3-2-1.2c-.8-.4-1.7-.4-2.5,0s-1.2,1.2-1.2,2.1v10.9c0,.9.5,1.7,1.2,2.1.4.2.8.3,1.2.3s.8,0,1.2-.3l1.6-.9,2.2-1.3,5.5-3.2c.8-.4,1.2-1.2,1.2-2.1.3-.9-.2-1.7-1-2.1ZM113.3,44.3l-5.9,3.4-.8.5-2.7,1.6c-.2,0-.4,0-.5,0s-.2-.2-.2-.4v-10.9c0-.3.2-.4.2-.4,0,0,0,0,.2,0s.2,0,.2,0l3,1.7,6.5,3.7c.2,0,.2.3.2.4.1,0,.1.3-.2.4Z"/>
          <path class="cls-12" d="M108.8,49.2l-3.9,2.2c-.4.2-.8.3-1.2.3s-.9,0-1.2-.3c-.8-.4-1.2-1.2-1.2-2.1v-8.3l2,2.2v6.2c0,.3.2.4.2.4,0,0,.3,0,.5,0l3.5-2,1.3,1.4Z"/>
          <path class="cls-4" d="M115.6,43.9c0,.9-.5,1.7-1.2,2.1l-5.5,3.2-2.2,1.3v-2.3c0,0,.9-.5.9-.5l5.9-3.4c.2,0,.2-.3.2-.4s0-.3-.2-.4l-6.5-3.7v-2.2c0,0,7.5,4.3,7.5,4.3.6.3,1.1,1.1,1.1,2Z"/>
        </g>
      </g>
    </g>
  </g>
  <g>
    <path class="cls-5" d="M9.7,79.2v1.1h-3.1v8.6h-1.3v-8.6h-3.2v-1.1h7.6Z"/>
    <path class="cls-5" d="M30.6,79.2v1.1h-4.7v3.2h3.8v1h-3.8v3.3h4.7v1.1h-6v-9.7h6Z"/>
    <path class="cls-5" d="M52.8,86.9q0,0,.2,0l.5.6c-.4.5-.9.8-1.4,1.1-.6.2-1.3.3-2.1.3s-1.3,0-1.9-.4c-.6-.2-1.1-.6-1.5-1s-.7-1-.9-1.6-.3-1.3-.3-2,0-1.4.4-2c.2-.6.6-1.1,1-1.6.4-.4.9-.8,1.5-1s1.3-.4,2-.4,1.3,0,1.8.3c.5.2,1,.5,1.4.9l-.5.7h0c0,0,0,0-.2,0s0,0-.2,0c0,0,0,0-.2-.2,0,0-.2,0-.3-.2s-.3,0-.4-.2c-.2,0-.4,0-.6-.2-.2,0-.5,0-.8,0-.5,0-1,0-1.4.3-.4.2-.8.4-1.1.8-.3.3-.6.7-.7,1.2-.2.5-.3,1-.3,1.6s0,1.1.3,1.6.4.9.7,1.2c.3.3.7.6,1.1.7.4.2.9.3,1.3.3s.5,0,.8,0c.2,0,.4,0,.6-.2.2,0,.4-.2.5-.3.2,0,.3-.2.5-.4.1.3.2.2.3.2Z"/>
    <path class="cls-5" d="M76.6,88.9h-1.3v-4.4h-5.3v4.4h-1.3v-9.7h1.3v4.3h5.2v-4.3h1.3v9.7h0Z"/>
    <path class="cls-5" d="M120.9,80.7c0,0,0,0,0,.2,0,0,0,0-.2,0s-.2,0-.3,0c0,0-.2-.2-.4-.3-.2,0-.3-.2-.6-.3-.2,0-.5,0-.8,0s-.6,0-.8,0c-.2,0-.4.2-.6.3-.2,0-.3.3-.3.5,0,.2,0,.4,0,.6,0,.3,0,.5.2.7s.3.3.5.5c.2,0,.5.2.7.3.3,0,.6.2.9.3.3,0,.6.2.9.3.3,0,.5.3.7.5s.4.4.5.7c0,.3.2.6.2,1s0,.8-.2,1.2c0,.4-.4.7-.6,1-.3.3-.6.5-1,.7s-.9.2-1.4.2-1.2,0-1.7-.3c-.5-.2-1-.5-1.3-.9l.4-.6h0c0,0,0-.2.2-.2s.2,0,.3.2c0,0,.3.2.5.3.2,0,.4.2.7.3.3,0,.6.2,1,.2s.6,0,.8,0,.5-.2.6-.4c.2-.2.3-.3.4-.6,0-.2,0-.5,0-.7,0-.3,0-.5-.2-.7s-.3-.3-.5-.5c-.2,0-.5-.2-.7-.3-.3,0-.6-.2-.9-.3s-.6-.2-.9-.3c-.3,0-.5-.3-.7-.5s-.4-.4-.5-.7c0-.3-.2-.7-.2-1.1s0-.7.2-1,.3-.6.6-.9c.3-.2.6-.4.9-.6.4,0,.8-.2,1.3-.2s1,0,1.5.3c.4.2.8.4,1.2.7l-.4.5Z"/>
    <path class="cls-5" d="M145.6,84.1c0,.7-.1,1.4-.3,2s-.6,1.1-1,1.6c-.4.4-.9.8-1.5,1s-1.2.4-2,.4-1.4,0-2-.4c-.6-.2-1.1-.6-1.5-1s-.7-1-1-1.6c-.2-.6-.3-1.3-.3-2s.1-1.4.3-2,.6-1.1,1-1.6c.4-.4.9-.8,1.5-1s1.2-.4,2-.4,1.4,0,2,.4,1.1.6,1.5,1,.7,1,1,1.6c.2.6.3,1.2.3,2ZM144.2,84.1c0-.6-.1-1.1-.2-1.6-.2-.5-.4-.9-.7-1.2-.3-.3-.7-.6-1.1-.8s-.9-.3-1.4-.3-1,0-1.4.3c-.4.2-.8.4-1.1.8-.3.3-.5.7-.7,1.2s-.2,1-.2,1.6.1,1.1.2,1.6c.2.5.4.9.7,1.2.3.3.7.6,1.1.8s.9.3,1.4.3,1,0,1.4-.3c.4-.2.8-.4,1.1-.8s.5-.7.7-1.2c.1-.5.2-1,.2-1.6Z"/>
    <path class="cls-5" d="M162.2,87.8h4.2v1.1h-5.5v-9.7h1.3v8.6Z"/>
    <path class="cls-5" d="M185.1,87.9c.4,0,.8,0,1.1-.2s.6-.3.8-.6c.2-.2.4-.5.5-.9.1-.3.2-.7.2-1.1v-5.9h1.3v5.9c0,.6-.1,1.1-.3,1.6s-.4.9-.8,1.2c-.3.4-.7.6-1.2.8-.5.2-1,.3-1.6.3s-1.1,0-1.6-.3c-.5-.2-.9-.5-1.2-.8-.3-.4-.6-.8-.8-1.2-.2-.5-.3-1-.3-1.6v-5.9h1.3v5.9c0,.4.1.8.2,1.1.1.3.3.6.5.9.2.2.5.4.8.6.3,0,.7.2,1.1.2Z"/>
    <path class="cls-5" d="M211.3,79.2v1.1h-3.1v8.6h-1.3v-8.6h-3.2v-1.1h7.6Z"/>
    <path class="cls-5" d="M227.7,88.9h-1.3v-9.7h1.3v9.7Z"/>
    <path class="cls-5" d="M252.8,84.1c0,.7-.1,1.4-.3,2s-.6,1.1-1,1.6c-.4.4-.9.8-1.5,1s-1.2.4-2,.4-1.4,0-2-.4c-.6-.2-1.1-.6-1.5-1s-.7-1-1-1.6c-.2-.6-.3-1.3-.3-2s.1-1.4.3-2,.6-1.1,1-1.6c.4-.4.9-.8,1.5-1s1.2-.4,2-.4,1.4,0,2,.4c.6.2,1.1.6,1.5,1s.7,1,1,1.6c.2.6.3,1.2.3,2ZM251.4,84.1c0-.6-.1-1.1-.2-1.6-.2-.5-.4-.9-.7-1.2-.3-.3-.7-.6-1.1-.8s-.9-.3-1.4-.3-1,0-1.4.3c-.4.2-.8.4-1.1.8-.3.3-.5.7-.7,1.2s-.2,1-.2,1.6.1,1.1.2,1.6c.2.5.4.9.7,1.2.3.3.7.6,1.1.8s.9.3,1.4.3,1,0,1.4-.3c.4-.2.8-.4,1.1-.8s.5-.7.7-1.2c.1-.5.2-1,.2-1.6Z"/>
    <path class="cls-5" d="M269,79.3c.1,0,.1,0,.2.2l5.6,7.3v-7.5h1.2v9.7h-.7c-.1,0-.2,0-.3,0-.1,0-.1,0-.2-.2l-5.6-7.3v7.5h-1.2v-9.7h.7c0,0,.2,0,.3,0Z"/>
    <path class="cls-5" d="M296.7,80.7c0,0-.1,0-.1.2,0,0-.1,0-.2,0s-.2,0-.3,0c-.1,0-.2-.2-.4-.3-.2,0-.3-.2-.6-.3-.2,0-.5,0-.8,0s-.6,0-.8,0c-.2,0-.4.2-.6.3-.2,0-.3.3-.3.5-.1.2-.1.4-.1.6,0,.3.1.5.2.7s.3.3.5.5c.2,0,.5.2.7.3.3,0,.6.2.9.3.3,0,.6.2.9.3.3,0,.5.3.7.5s.4.4.5.7c.1.3.2.6.2,1s-.1.8-.2,1.2c-.1.4-.4.7-.6,1-.3.3-.6.5-1,.7-.3.1-.8.1-1.3.1s-1.2,0-1.7-.3c-.5-.2-1-.5-1.3-.9l.4-.6h.1c.1,0,.1-.2.2-.2s.2,0,.3.2c.1,0,.3.2.5.3.2,0,.4.2.7.3.3,0,.6.2,1,.2s.6,0,.8,0,.5-.2.6-.4c.2-.2.3-.3.4-.6.1-.2.1-.5.1-.7,0-.3-.1-.5-.2-.7s-.3-.3-.5-.5c-.2,0-.5-.2-.7-.3-.3,0-.6-.2-.9-.3-.3,0-.6-.2-.9-.3-.3,0-.5-.3-.7-.5s-.4-.4-.5-.7c-.1-.3-.2-.7-.2-1.1s.1-.7.2-1,.3-.6.6-.9c.3-.2.6-.4.9-.6.4,0,.8-.2,1.3-.2s1,0,1.5.3c.4.2.8.4,1.2.7l-.5.6Z"/>
  </g>
</svg>